<svg width="118" height="70" viewBox="0 0 118 70" fill="none" xmlns="http://www.w3.org/2000/svg">
<path d="M0 61.6015V1.18048H14.3572V25.2556H36.593V1.18048H51.0326V61.6015H36.593V37.0049H14.3572V61.6015H0Z" fill="white"/>
<path d="M71.0184 31.4321C71.0184 43.6755 77.2773 50.9502 86.9952 50.9502C96.7131 50.9502 102.972 43.7579 102.972 31.4321C102.972 19.1063 96.6307 11.8317 86.9952 11.8317C77.3597 11.8317 71.0184 19.024 71.0184 31.4321ZM56.2219 31.4321C56.2219 12.0787 68.4654 0 87.0501 0C105.635 0 117.796 11.9964 117.796 31.4321C117.796 41.6441 114.419 49.7698 108.6 55.1778L111.949 60.0642C114.831 64.2643 111.812 69.9742 106.733 69.9742C104.564 69.9742 102.56 68.8761 101.407 67.0643L97.5366 61.1897C94.4072 62.2054 90.8659 62.7819 87.0501 62.7819C68.383 62.7819 56.2219 50.7855 56.2219 31.4321Z" fill="white"/>
</svg>
