<?xml version="1.0" encoding="UTF-8"?>
<svg id="Layer_1" data-name="Layer 1" xmlns="http://www.w3.org/2000/svg" viewBox="0 0 18.19 18.19">
  <defs>
    <style>
      .cls-1 {
        fill: #fff;
      }
    </style>
  </defs>
  <path class="cls-1" d="M11.27,13.23l1.97-1.97c.35-.35.54-.81.54-1.3s-.19-.96-.54-1.3l-3.71-3.71c-.72-.72-1.89-.72-2.61,0l-1.97,1.97c-.72.72-.72,1.89,0,2.61l3.71,3.71c.35.35.81.54,1.3.54s.96-.19,1.3-.54ZM5.66,8.82c-.33-.33-.33-.86,0-1.19l1.97-1.97c.17-.16.38-.25.6-.25s.43.08.6.25l3.71,3.71c.16.16.25.37.25.6s-.09.44-.25.6l-1.97,1.97c-.32.32-.88.32-1.19,0l-3.71-3.71Z"/>
  <path class="cls-1" d="M13.99,1.45l2.09-.45-.13-.59-3.52.76,1.02,3.46.58-.17-.65-2.22c2.36,1.47,3.81,4.03,3.81,6.84,0,4.46-3.63,8.09-8.09,8.09v1c5.01,0,9.09-4.08,9.09-9.09,0-3.13-1.59-5.98-4.19-7.64Z"/>
  <path class="cls-1" d="M4.37,13.94l.75,2.19c-2.52-1.43-4.12-4.11-4.12-7.03C1,4.63,4.63,1,9.09,1V0C4.08,0,0,4.08,0,9.09c0,3.25,1.77,6.23,4.54,7.85l-2.07.54.15.58,3.49-.91-1.16-3.41-.57.19Z"/>
</svg>