<svg width="25" height="25" viewBox="0 0 25 25" fill="none" xmlns="http://www.w3.org/2000/svg">
<path d="M7.04594 12.0564C7.31267 12.0564 7.56848 11.9504 7.7571 11.7618C7.94571 11.5732 8.05167 11.3174 8.05167 11.0507C8.05167 10.7839 7.94571 10.5281 7.7571 10.3395C7.56848 10.1509 7.31267 10.0449 7.04594 10.0449H3.02302C2.75628 10.0449 2.50047 10.1509 2.31186 10.3395C2.12325 10.5281 2.01729 10.7839 2.01729 11.0507C2.01729 11.3174 2.12325 11.5732 2.31186 11.7618C2.50047 11.9504 2.75628 12.0564 3.02302 12.0564H3.27445C3.34113 12.0564 3.40509 12.0829 3.45224 12.13C3.49939 12.1772 3.52588 12.2411 3.52588 12.3078V16.3307C3.52588 16.3974 3.49939 16.4614 3.45224 16.5085C3.40509 16.5557 3.34113 16.5822 3.27445 16.5822H3.02302C2.75628 16.5822 2.50047 16.6881 2.31186 16.8767C2.12325 17.0653 2.01729 17.3212 2.01729 17.5879C2.01729 17.8546 2.12325 18.1104 2.31186 18.2991C2.50047 18.4877 2.75628 18.5936 3.02302 18.5936H7.04594C7.31267 18.5936 7.56848 18.4877 7.7571 18.2991C7.94571 18.1104 8.05167 17.8546 8.05167 17.5879C8.05167 17.3212 7.94571 17.0653 7.7571 16.8767C7.56848 16.6881 7.31267 16.5822 7.04594 16.5822H6.7945C6.72782 16.5822 6.66387 16.5557 6.61671 16.5085C6.56956 16.4614 6.54307 16.3974 6.54307 16.3307V12.3078C6.54307 12.2411 6.56956 12.1772 6.61671 12.13C6.66387 12.0829 6.72782 12.0564 6.7945 12.0564H7.04594Z" fill="white"/>
<path d="M14.0861 12.0564C14.3528 12.0564 14.6086 11.9504 14.7973 11.7618C14.9859 11.5732 15.0918 11.3174 15.0918 11.0507C15.0918 10.7839 14.9859 10.5281 14.7973 10.3395C14.6086 10.1509 14.3528 10.0449 14.0861 10.0449H10.0632C9.79644 10.0449 9.54063 10.1509 9.35202 10.3395C9.16341 10.5281 9.05745 10.7839 9.05745 11.0507C9.05745 11.3174 9.16341 11.5732 9.35202 11.7618C9.54063 11.9504 9.79644 12.0564 10.0632 12.0564H10.3146C10.3813 12.0564 10.4452 12.0829 10.4924 12.13C10.5396 12.1772 10.566 12.2411 10.566 12.3078V16.3307C10.566 16.3974 10.5396 16.4614 10.4924 16.5085C10.4452 16.5557 10.3813 16.5822 10.3146 16.5822H10.0632C9.79644 16.5822 9.54063 16.6881 9.35202 16.8767C9.16341 17.0653 9.05745 17.3212 9.05745 17.5879C9.05745 17.8546 9.16341 18.1104 9.35202 18.2991C9.54063 18.4877 9.79644 18.5936 10.0632 18.5936H14.0861C14.3528 18.5936 14.6086 18.4877 14.7973 18.2991C14.9859 18.1104 15.0918 17.8546 15.0918 17.5879C15.0918 17.3212 14.9859 17.0653 14.7973 16.8767C14.6086 16.6881 14.3528 16.5822 14.0861 16.5822H13.8347C13.768 16.5822 13.704 16.5557 13.6569 16.5085C13.6097 16.4614 13.5832 16.3974 13.5832 16.3307V12.3078C13.5832 12.2411 13.6097 12.1772 13.6569 12.13C13.704 12.0829 13.768 12.0564 13.8347 12.0564H14.0861Z" fill="white"/>
<path d="M21.629 12.0564C21.8957 12.0564 22.1515 11.9504 22.3401 11.7618C22.5287 11.5732 22.6347 11.3174 22.6347 11.0507C22.6347 10.7839 22.5287 10.5281 22.3401 10.3395C22.1515 10.1509 21.8957 10.0449 21.629 10.0449H17.6061C17.3393 10.0449 17.0835 10.1509 16.8949 10.3395C16.7063 10.5281 16.6003 10.7839 16.6003 11.0507C16.6003 11.3174 16.7063 11.5732 16.8949 11.7618C17.0835 11.9504 17.3393 12.0564 17.6061 12.0564H17.8575C17.9242 12.0564 17.9881 12.0829 18.0353 12.13C18.0824 12.1772 18.1089 12.2411 18.1089 12.3078V16.3307C18.1089 16.3974 18.0824 16.4614 18.0353 16.5085C17.9881 16.5557 17.9242 16.5822 17.8575 16.5822H17.6061C17.3393 16.5822 17.0835 16.6881 16.8949 16.8767C16.7063 17.0653 16.6003 17.3212 16.6003 17.5879C16.6003 17.8546 16.7063 18.1104 16.8949 18.2991C17.0835 18.4877 17.3393 18.5936 17.6061 18.5936H21.629C21.8957 18.5936 22.1515 18.4877 22.3401 18.2991C22.5287 18.1104 22.6347 17.8546 22.6347 17.5879C22.6347 17.3212 22.5287 17.0653 22.3401 16.8767C22.1515 16.6881 21.8957 16.5822 21.629 16.5822H21.3775C21.3109 16.5822 21.2469 16.5557 21.1998 16.5085C21.1526 16.4614 21.1261 16.3974 21.1261 16.3307V12.3078C21.1261 12.2411 21.1526 12.1772 21.1998 12.13C21.2469 12.0829 21.3109 12.0564 21.3775 12.0564H21.629Z" fill="white"/>
<path d="M2.46974 8.53609H21.7797C21.9755 8.54047 22.1683 8.48761 22.3344 8.38399C22.5006 8.28037 22.6329 8.1305 22.7151 7.95277C22.7952 7.76496 22.808 7.55522 22.7511 7.35909C22.6943 7.16296 22.5714 6.99251 22.4033 6.87664L13.221 0.188535C13.0418 0.0657252 12.8297 0 12.6125 0C12.3953 0 12.1832 0.0657252 12.0041 0.188535L1.88641 6.85652C1.70973 6.96509 1.57736 7.13288 1.51289 7.32998C1.44842 7.52707 1.45604 7.74066 1.53441 7.93265C1.61359 8.11414 1.74459 8.26822 1.91098 8.37557C2.07737 8.48291 2.27174 8.53875 2.46974 8.53609Z" fill="white"/>
<path d="M24.0629 23.341L22.0514 20.3238C22.0042 20.2555 21.9411 20.1996 21.8675 20.1611C21.7939 20.1226 21.7121 20.1025 21.629 20.1025H2.52013C2.43707 20.1025 2.35523 20.1226 2.28166 20.1611C2.20808 20.1996 2.14496 20.2555 2.09773 20.3238L0.0862679 23.341C0.0348608 23.417 0.0052467 23.5057 0.000635183 23.5974C-0.00397634 23.689 0.0165906 23.7802 0.060107 23.861C0.103623 23.9419 0.168429 24.0092 0.247501 24.0558C0.326572 24.1024 0.416893 24.1265 0.508674 24.1255H23.6405C23.7322 24.1265 23.8226 24.1024 23.9016 24.0558C23.9807 24.0092 24.0455 23.9419 24.089 23.861C24.1325 23.7802 24.1531 23.689 24.1485 23.5974C24.1439 23.5057 24.1143 23.417 24.0629 23.341Z" fill="white"/>
</svg>
