<?xml version="1.0" encoding="UTF-8"?>
<svg id="Layer_1" data-name="Layer 1" xmlns="http://www.w3.org/2000/svg" viewBox="0 0 188.44 192.59">
  <defs>
    <style>
      .cls-1 {
        fill: #fff;
      }

      .cls-2 {
        fill: #e30613;
      }
    </style>
  </defs>
  <g id="zgsBkv">
    <g>
      <path class="cls-1" d="M188.32,91.16l.13,10.4c-2.72,31.33-28.76,55.61-60.11,55.56l-70.08-.12c-30.64-.05-55.53-25.01-58.25-55.44l.14-10.45c2.76-31.49,28.47-55.65,59.61-55.6l70.42.1c30.73.04,55.38,24.91,58.14,55.55ZM166.49,95.38c-.16-21.71-17.46-39.34-38.46-39.35H61.15c-21.24-.01-38.53,17.87-38.59,39.53s16.84,39.64,37.89,39.63h68.29c20.9-.01,37.91-18.37,37.75-39.81Z"/>
      <path class="cls-2" d="M188.44,101.56v91.03H0v-91.03c2.72,30.42,27.6,55.38,58.25,55.44l70.08.12c31.35.05,57.39-24.22,60.11-55.56Z"/>
      <path class="cls-2" d="M.14,91.11L0,0h188.44l-.13,91.16c-2.76-30.65-27.41-55.51-58.14-55.55l-70.42-.1c-31.14-.04-56.85,24.12-59.61,55.6Z"/>
      <path class="cls-2" d="M166.49,95.38c.16,21.45-16.85,39.8-37.75,39.8H60.45c-21.05.01-37.94-18.34-37.89-39.63s17.35-39.54,38.59-39.54h66.89c20.99.01,38.3,17.64,38.46,39.36Z"/>
    </g>
  </g>
</svg>